<svg id="Layer_1" data-name="Layer 1" xmlns="http://www.w3.org/2000/svg" viewBox="0 0 161 148"><defs><style>.cls-1{fill:red;}</style></defs><title>Artboard 1</title><path class="cls-1" d="M157.19,89.12,127,85,112.16,59A22.81,22.81,0,0,0,92.62,47.66H53.2A22.62,22.62,0,0,0,32,62.44L24,84.53l-20,4.25A4.92,4.92,0,0,0,0,93.7v28.72a4.93,4.93,0,0,0,4.93,4.93h11.9a22.33,22.33,0,0,0,44.52,0H99.93a22.33,22.33,0,0,0,44.52,0h11.89a4.93,4.93,0,0,0,4.93-4.93V94A4.68,4.68,0,0,0,157.19,89.12ZM39.1,137.38a11.73,11.73,0,1,1,11.72-11.73A11.75,11.75,0,0,1,39.1,137.38Zm1.19-53a1.09,1.09,0,0,1-1-1.36L45,67.37a8.43,8.43,0,0,1,8-5.61h7a1,1,0,0,1,1,.85l1.87,20.73a1,1,0,0,1-1,1Zm37-.85L75.46,62.78a1,1,0,0,1,1-1H92.62A8.86,8.86,0,0,1,100.1,66l9.69,16.82a1.06,1.06,0,0,1-.85,1.53H78.18A.8.8,0,0,1,77.33,83.51Zm45,53.87a11.73,11.73,0,1,1,11.72-11.73A11.74,11.74,0,0,1,122.36,137.38Z"/><path class="cls-1" d="M47.08,35.59A17.51,17.51,0,0,0,63.57,24h5.6c.17,0,.51.17.68.17l3.23,2.88a.64.64,0,0,0,1,0l4.76-4.24a.64.64,0,0,1,1,0l4.76,4.24a.64.64,0,0,0,1,0l4.75-4.24a.64.64,0,0,1,1,0l4.76,4.24a.64.64,0,0,0,1,0l3.23-2.88c.17-.17.34-.17.68-.17H105a1.3,1.3,0,0,0,.85-.34L110,18.6a1,1,0,0,0,0-1.36l-4.08-5.1a1.3,1.3,0,0,0-.85-.34H63.57a17.66,17.66,0,0,0-34.16,6.29A17.52,17.52,0,0,0,47.08,35.59ZM40.29,14a3.91,3.91,0,1,1-3.91,3.91A3.85,3.85,0,0,1,40.29,14Z"/></svg>