<?xml version="1.0" encoding="utf-8"?>
<!-- Generator: Adobe Illustrator 23.0.1, SVG Export Plug-In . SVG Version: 6.00 Build 0)  -->
<svg version="1.1" id="Layer_1" xmlns="http://www.w3.org/2000/svg" xmlns:xlink="http://www.w3.org/1999/xlink" x="0px" y="0px"
	 viewBox="0 0 50 50" style="enable-background:new 0 0 50 50;" xml:space="preserve">
<style type="text/css">
	.st0{fill:none;stroke:#000000;stroke-miterlimit:10;}
</style>
<g>
	<g>
		<g>
			<path d="M20,23.1v3.8c0,0,3.7,0,5.1,0c-0.8,2.5-2,3.8-5.1,3.8s-5.6-2.5-5.6-5.7s2.4-5.7,5.6-5.7c1.7,0,2.7,0.6,3.7,1.4
				c0.8-0.8,0.8-0.9,2.7-2.8c-1.7-1.5-3.9-2.5-6.4-2.5c-5.3,0-9.5,4.3-9.5,9.5s4.3,9.5,9.5,9.5c7.9,0,9.8-6.9,9.2-11.4
				C27.3,23.1,20,23.1,20,23.1z M37.1,23.3V20h-2.4v3.3h-3.4v2.4h3.4V29h2.4v-3.4h3.3v-2.4H37.1z"/>
		</g>
	</g>
</g>
<circle class="st0" cx="24.5" cy="25" r="24"/>
</svg>
