<svg id="Layer_1" data-name="Layer 1" xmlns="http://www.w3.org/2000/svg" viewBox="0 0 411 190"><defs><style>.cls-1{fill:#fff;}</style></defs><title>Artboard 1</title><path class="cls-1" d="M72.21,48.5l37.1,140.16H79.87L73.39,159H36.09l-6.48,29.64H.17L37.27,48.5Zm-3.73,87.35-13.54-63h-.4L41,135.85Z"/><path class="cls-1" d="M145.63,146.26a62.06,62.06,0,0,0,.69,9.72,21.7,21.7,0,0,0,2.55,7.65,13.57,13.57,0,0,0,5.1,5.1,18.89,18.89,0,0,0,16.39,0,13.93,13.93,0,0,0,5-5.1,22.11,22.11,0,0,0,2.55-7.65,63.3,63.3,0,0,0,.69-9.72V48.5h28.27v97.76q0,13.35-3.73,22.08a35.19,35.19,0,0,1-10,13.84,33.86,33.86,0,0,1-14.33,6.87,77.43,77.43,0,0,1-16.68,1.77,87.57,87.57,0,0,1-16.69-1.57,33.89,33.89,0,0,1-14.33-6.38,32.81,32.81,0,0,1-10-13.64q-3.74-8.83-3.73-23V48.5h28.27Z"/><path class="cls-1" d="M306.79,71.66H276.17v117H247.9v-117H217.28V48.5h89.51Z"/><path class="cls-1" d="M317.49,89.23Q319,75.79,324,66.17a36.2,36.2,0,0,1,14.43-15q9.42-5.4,25.32-5.4T389,51.15a36.32,36.32,0,0,1,14.43,15q5,9.61,6.48,23.06a271.25,271.25,0,0,1,1.47,29.35A270.5,270.5,0,0,1,410,148a64.72,64.72,0,0,1-6.48,23A34.48,34.48,0,0,1,389,185.72q-9.42,5.1-25.32,5.1t-25.32-5.1A34.37,34.37,0,0,1,324,171a64.72,64.72,0,0,1-6.48-23A270.5,270.5,0,0,1,316,118.58,271.25,271.25,0,0,1,317.49,89.23ZM345,142.63a66.47,66.47,0,0,0,2.75,16.09c1.37,4.12,3.34,7.14,5.89,9s5.92,2.85,10.11,2.85,7.56-.95,10.11-2.85,4.51-4.91,5.89-9a67.46,67.46,0,0,0,2.75-16.09q.67-9.91.68-24t-.68-24a68.88,68.88,0,0,0-2.75-16.1q-2.07-6.27-5.89-9.12t-10.11-2.85q-6.29,0-10.11,2.85t-5.89,9.12A67.85,67.85,0,0,0,345,94.63q-.69,9.83-.69,24T345,142.63Z"/><circle class="cls-1" cx="261.79" cy="17.58" r="16.58"/></svg>

















