<svg id="Layer_1" data-name="Layer 1" xmlns="http://www.w3.org/2000/svg" viewBox="0 0 134 134"><defs><style>.cls-1{fill:red;}</style></defs><title>Artboard 1</title><path class="cls-1" d="M33.55,134.12a33.23,33.23,0,0,1-12.15-2.3,5.15,5.15,0,0,1-1.77-8.44l14.24-14.23a.48.48,0,0,0,0-.66l-7.95-7.94a.47.47,0,0,0-.66,0L11,114.78A5.15,5.15,0,0,1,2.59,113,33.24,33.24,0,0,1,42.4,68.84L68.94,42.29A33.22,33.22,0,0,1,113.1,2.5,5.15,5.15,0,0,1,114.86,11L100.63,25.18a.44.44,0,0,0-.13.33.44.44,0,0,0,.13.32l8,8a.47.47,0,0,0,.66,0l14.23-14.23a5.15,5.15,0,0,1,8.44,1.76A33.24,33.24,0,0,1,92.1,65.49L65.56,92a33.22,33.22,0,0,1-32,42.09Zm-8-44a10.7,10.7,0,0,1,7.62,3.16l7.95,7.94a10.79,10.79,0,0,1,0,15.24l-7.38,7.37A22.91,22.91,0,0,0,54.87,92.49,5.18,5.18,0,0,1,56,87l31-31a5.18,5.18,0,0,1,5.53-1.16A22.94,22.94,0,0,0,123.9,33.69l-7.37,7.37a10.77,10.77,0,0,1-15.24,0l-7.94-7.94a10.76,10.76,0,0,1,0-15.23l7.38-7.38a22.93,22.93,0,0,0-21.1,31.32,5.14,5.14,0,0,1-1.16,5.51l-31,31a5.14,5.14,0,0,1-5.52,1.15A22.94,22.94,0,0,0,10.6,100.63L18,93.26A10.67,10.67,0,0,1,25.59,90.1Z"/></svg>