<svg id="Layer_1" data-name="Layer 1" xmlns="http://www.w3.org/2000/svg" viewBox="0 0 3840 208"><defs><style>.cls-1{fill:#d9f4ff;}</style></defs><title>Artboard 1</title><polyline class="cls-1" points="3840 81 3840 208 3840 195 1920 195 1920 118 1920 118.45 2154.39 21.26 2374.46 139.16 2553.62 93.39 2592.11 110.03 2901.84 -0.28 3152.13 110.03 3246.11 69.86 3460.56 143.24 3682.55 30.64"/><polyline class="cls-1" points="0 81 0 208 0 195 1920 195 1920 118 1920 118.45 1685.61 21.26 1465.54 139.16 1286.38 93.39 1247.89 110.03 938.15 -0.28 687.87 110.03 593.88 69.86 379.44 143.24 157.45 30.64"/></svg>