<svg id="Layer_1" data-name="Layer 1" xmlns="http://www.w3.org/2000/svg" viewBox="0 0 119 122"><defs><style>.cls-1{fill:red;}</style></defs><title>Artboard 1</title><path class="cls-1" d="M59.34,30.56A30.61,30.61,0,1,0,90,61.16,30.6,30.6,0,0,0,59.34,30.56Zm0,51A20.44,20.44,0,1,1,79.79,61.16,20.44,20.44,0,0,1,59.34,81.6Z"/><path class="cls-1" d="M115.83,71.86l-9.58-7.49c.07-1,.13-2.08.13-3.21a25.22,25.22,0,0,0-.13-3.2l9.61-7.51a7.92,7.92,0,0,0,1.92-10.17L106.6,21A7.92,7.92,0,0,0,97,17.52h-.15L85.56,22.07A46.11,46.11,0,0,0,80,18.86L78.31,7A7.8,7.8,0,0,0,70.53.16H48.17a7.79,7.79,0,0,0-7.78,6.71L38.66,18.93a46.23,46.23,0,0,0-5.49,3.2L21.73,17.56A7.8,7.8,0,0,0,12.06,21L1,40.29A7.9,7.9,0,0,0,2.87,50.46L12.45,58a25.49,25.49,0,0,0-.14,3.2,27.6,27.6,0,0,0,.13,3.21l-9.6,7.51a7.89,7.89,0,0,0-2,10V82L12,101.24a7.93,7.93,0,0,0,9.61,3.57h.15l11.33-4.55a46.48,46.48,0,0,0,5.51,3.2l1.72,12a7.83,7.83,0,0,0,7.86,6.74H70.53a7.79,7.79,0,0,0,7.78-6.71L80,103.4a48.7,48.7,0,0,0,5.5-3.21L97,104.77a7.84,7.84,0,0,0,9.69-3.46L117.8,81.88A7.9,7.9,0,0,0,115.83,71.86ZM98.74,94.55l-12-4.83a5.1,5.1,0,0,0-4.94.65,37.66,37.66,0,0,1-8.33,4.84,5.11,5.11,0,0,0-3.1,4L68.53,112H50.17L48.33,99.19a5.11,5.11,0,0,0-3.1-4,35.38,35.38,0,0,1-8.29-4.81,5.07,5.07,0,0,0-5-.69l-12,4.84L10.72,78.63l10.17-8A5.08,5.08,0,0,0,22.8,66a37.5,37.5,0,0,1-.32-4.85,41.47,41.47,0,0,1,.35-4.85,5.05,5.05,0,0,0-1.9-4.64l-10.17-8,9.18-15.92L32,32.6a5.07,5.07,0,0,0,4.94-.67,37.89,37.89,0,0,1,8.33-4.84,5.11,5.11,0,0,0,3.1-4l1.83-12.79H68.53l1.83,12.82a5,5,0,0,0,3.1,4,36,36,0,0,1,8.3,4.82,5.07,5.07,0,0,0,5,.69l12-4.85,9.2,15.93-10.17,8a5.1,5.1,0,0,0-1.91,4.64,37.37,37.37,0,0,1,.34,4.84A39.44,39.44,0,0,1,95.84,66a5.08,5.08,0,0,0,1.91,4.64l10.16,8Z"/></svg>