<?xml version="1.0" encoding="utf-8"?>
<!-- Generator: Adobe Illustrator 23.0.1, SVG Export Plug-In . SVG Version: 6.00 Build 0)  -->
<svg version="1.1" id="Layer_1" xmlns="http://www.w3.org/2000/svg" xmlns:xlink="http://www.w3.org/1999/xlink" x="0px" y="0px"
	 viewBox="0 0 1925 345" style="enable-background:new 0 0 1925 345;" xml:space="preserve">
<style type="text/css">
	.st0{fill:none;stroke:#808080;stroke-width:5;stroke-miterlimit:10;}
	.st1{fill:none;stroke:#808080;stroke-width:5;stroke-miterlimit:10;stroke-dasharray:30.0794,50.1323;}
	.st2{fill:#C6C2AF;}
	.st3{fill:#4B823D;}
	.st4{fill:#6FB259;}
	.st5{fill:#3F6D32;}
	.st6{fill:#695020;}
	.st7{fill:#88C881;}
	.st8{fill:#6AA562;}
	.st9{fill:#6BA543;}
	.st10{fill:#83C451;}
	.st11{fill:#B4CB34;}
	.st12{fill:#AAB72C;}
	.st13{fill:#94C85B;}
	.st14{fill:#84AF4B;}
	.st15{fill:#666666;stroke:#666666;stroke-width:5;stroke-miterlimit:10;}
	.st16{fill:#4D4D4D;}
	.st17{fill:#39B54A;}
	.st18{fill:#666666;}
</style>
<g>
	<g>
		<line class="st0" x1="0" y1="336.5" x2="15" y2="336.5"/>
		<line class="st1" x1="65.1" y1="336.5" x2="1884.9" y2="336.5"/>
		<line class="st0" x1="1910" y1="336.5" x2="1925" y2="336.5"/>
	</g>
</g>
<g>
	<path class="st2" d="M1298.8,288.7c0,6.9-25.8,12.5-57.7,12.5c-31.8,0-57.7-5.6-57.7-12.5c0-6.9,25.8-12.5,57.7-12.5
		C1273,276.2,1298.8,281.8,1298.8,288.7z"/>
	<g>
		<path class="st3" d="M1195.6,288.7c0,0-13.7-3.7-8.3-16.6c5.4-12.8,17-4.1,17-4.1s-11.6-9.5-2.5-17.8c9.1-8.3,11.6,9.9,11.6,9.9
			s-4.6-21.9,15.3-25.7c19.9-3.7,25.7,24.8,25.7,24.8s2.1-21.5,11.2-22.4c9.1-0.8,0,19.5,0,19.5s11.1-17.4,27.5-5
			c16.4,12.4-3.5,37.3-3.5,37.3H1195.6z"/>
		<g>
			<path class="st4" d="M1193.8,276.2c2.2-5.9,14.8-4.2,14.8-4.2s-6.6-14-3.9-15.7c2.7-1.7,10.7,8.7,10.7,8.7s-1.1-14.3,6.6-20.3
				c7.7-6,22-0.5,30,16.7c0,0,0.9-1.3,2.2-2.8c-1.1-4.4-7.5-27.5-25.5-24.1c-17.5,3.3-16.1,20.6-15.5,24.8c-0.6-3.6-3.6-16.2-11.4-9
				c-9.1,8.3,2.5,17.8,2.5,17.8s-11.6-8.7-17,4.1c-5.4,12.8,8.3,16.6,8.3,16.6S1191.6,282.1,1193.8,276.2z"/>
			<path class="st4" d="M1293.1,251.5c-16.4-12.4-27.5,5-27.5,5s9.1-20.3,0-19.5c-7.9,0.7-10.5,17-11.1,21.3c2.1-2.4,4.9-5,6.5-3.6
				c2.7,2.3,1.7,9,1.7,9s11.3-12,20.3-7.3c9,4.7,6.6,32.4,6.6,32.4S1309.5,263.9,1293.1,251.5z"/>
		</g>
	</g>
</g>
<g>
	<path class="st2" d="M1414.3,287.8c0,6.9-14.1,12.5-31.5,12.5c-17.4,0-31.5-5.6-31.5-12.5s14.1-12.5,31.5-12.5
		C1400.2,275.3,1414.3,280.9,1414.3,287.8z"/>
	<g>
		<g>
			<g>
				<ellipse class="st2" cx="1119.4" cy="286.5" rx="37.4" ry="14.8"/>
				<g>
					<g>
						<g>
							<path class="st3" d="M1120.2,205.5c0,0-20.3-5.5-28.9-34c-8.6-28.5-9.9-99.7,0-128.2c9.9-28.5,32.9-50.3,46.6-30.9
								c13.7,19.4,22.1,108.8,12.6,147C1141,197.6,1127.3,203.7,1120.2,205.5z"/>
						</g>
						<path class="st5" d="M1113,10.1c16.8,1.8,25.3,40.3,28.9,68.2c3.6,27.9,6.4,89.3-16.9,96.6c-23.1,7.2-34.8-8-35-8.3
							c0.4,1.7,0.8,3.4,1.3,4.9c8.6,28.5,28.9,34,28.9,34c7.1-1.8,20.8-7.9,30.3-46.1c9.5-38.2,1.2-127.6-12.6-147
							C1131,2.7,1121.7,3.4,1113,10.1z"/>
					</g>
					<g>
						<path class="st6" d="M1111,290.1c0,0,2.6-104,1.9-107.4c-0.7-3.5-10-19.5-10-19.5s11.9,14.5,13,8.5c1.1-6,3.3-51.4,3.3-51.4
							s0.7,45.9,3.7,45.4c3-0.5,15.2-18.5,15.2-18.5s-14.1,24-14.1,32.9c0,9,1.1,109.9,1.1,109.9H1111z"/>
					</g>
				</g>
			</g>
			<g>
				<path class="st2" d="M1048.5,288.7c0,6.9-25.8,12.5-57.7,12.5c-31.8,0-57.7-5.6-57.7-12.5c0-6.9,25.8-12.5,57.7-12.5
					C1022.7,276.2,1048.5,281.8,1048.5,288.7z"/>
				<g>
					<path class="st3" d="M945.3,288.7c0,0-13.7-3.7-8.3-16.6c5.4-12.8,17-4.1,17-4.1s-11.6-9.5-2.5-17.8c9.1-8.3,11.6,9.9,11.6,9.9
						s-4.6-21.9,15.3-25.7c19.9-3.7,25.7,24.8,25.7,24.8s2.1-21.5,11.2-22.4c9.1-0.8,0,19.5,0,19.5s11.1-17.4,27.5-5
						c16.4,12.4-3.5,37.3-3.5,37.3H945.3z"/>
					<g>
						<path class="st4" d="M943.5,276.2c2.2-5.9,14.8-4.2,14.8-4.2s-6.6-14-3.9-15.7c2.7-1.7,10.7,8.7,10.7,8.7s-1.1-14.3,6.6-20.3
							c7.7-6,22-0.5,30,16.7c0,0,0.9-1.3,2.2-2.8c-1.1-4.4-7.5-27.5-25.5-24.1c-17.5,3.3-16.1,20.6-15.5,24.8
							c-0.6-3.6-3.6-16.2-11.4-9c-9.1,8.3,2.5,17.8,2.5,17.8s-11.6-8.7-17,4.1c-5.4,12.8,8.3,16.6,8.3,16.6S941.3,282.1,943.5,276.2
							z"/>
						<path class="st4" d="M1042.8,251.5c-16.4-12.4-27.5,5-27.5,5s9.1-20.3,0-19.5c-7.9,0.7-10.5,17-11.1,21.3
							c2.1-2.4,4.9-5,6.5-3.6c2.7,2.3,1.7,9,1.7,9s11.3-12,20.3-7.3c9,4.7,6.6,32.4,6.6,32.4S1059.2,263.9,1042.8,251.5z"/>
					</g>
				</g>
			</g>
			<g>
				<path class="st2" d="M808.9,289.1c0,6.9-14.1,12.5-31.5,12.5c-17.4,0-31.5-5.6-31.5-12.5c0-6.9,14.1-12.5,31.5-12.5
					C794.8,276.6,808.9,282.2,808.9,289.1z"/>
				<g>
					<g>
						<path class="st7" d="M832.9,156.1c-4.9-17.3-20.9-25.4-35.5-25.4c-5.9-15.1-25.3-23.3-41.1-17.2c-18.3,7-23.3,27.5-18.6,41.9
							c0,0,0,0,0,0c-5.5,2.4-10.4,6.6-14,13c-8.2,14.4,2.4,33.5,18.4,37c14.6,3.2,26.6-6.5,31.1-17.4c6.7,7.3,16.2,12.1,28.3,12.5
							C823.1,201,838.7,176.8,832.9,156.1z"/>
						<path class="st8" d="M795.4,182.4c-13.6,1.3-21.5-5.8-21.5-5.8s-9.3,10.1-28,11.5c-17.3,1.3-24.2-9.7-25.1-11.3
							c-1.3,12.5,8.2,25.6,21.1,28.5c14.6,3.2,26.6-6.5,31.1-17.4c6.7,7.3,16.2,12.1,28.3,12.5c21.8,0.7,37.4-23.5,31.6-44.2
							c-4.9-17.3-20.9-25.4-35.5-25.4C823.6,149.6,809,181.1,795.4,182.4z"/>
					</g>
					<g>
						<path class="st6" d="M768,292.1c0,0,2.6-92.3,1.9-95.5c-0.8-3.2-10.2-17.7-10.2-17.7s12,13.2,13.2,7.7
							c1.1-5.5,3.4-46.8,3.4-46.8s0.8,41.8,3.8,41.4c3-0.5,15.4-16.8,15.4-16.8s-14.3,21.8-14.3,30c0,8.2,1.1,97.7,1.1,97.7H768z"/>
					</g>
				</g>
			</g>
			<g>
				<ellipse class="st2" cx="641.2" cy="286.4" rx="63" ry="12.5"/>
				<g>
					<path class="st9" d="M596.6,286.4c0,0-9.7-24.6-2.3-32.8c7.4-8.2,21.8-7.3,26.7,1.4c0,0,1.4-8.9,11.7-10.4
						c10.3-1.5,13.3,8.1,13.6,12c0,0,8.3-6.9,17.7-5.7c9.4,1.1,11.7,9.4,9.9,12.4c0,0,24.7,0.3,15.6,23.2H596.6z"/>
					<path class="st10" d="M601.2,259.7c8-5,18.7,2.3,18.7,2.3s4-9.2,12.8-8.8c8.8,0.4,12.8,9.1,12.8,9.1s10.6-6.3,18.6-1.3
						c8,5,7,10.3,7,10.3s19.5-1.6,18.3,15c9.1-22.9-15.6-23.2-15.6-23.2c1.8-3-0.5-11.2-9.9-12.4c-9.4-1.1-17.7,5.7-17.7,5.7
						c-0.2-3.9-3.2-13.5-13.6-12c-10.3,1.5-11.7,10.4-11.7,10.4c-4.8-8.7-19.3-9.6-26.7-1.4c-7.4,8.2,2.3,32.8,2.3,32.8
						S593.2,264.7,601.2,259.7z"/>
				</g>
			</g>
			<g>
				<ellipse class="st2" cx="367.3" cy="286.6" rx="31.5" ry="12.5"/>
				<g>
					<g>
						<g>
							<path class="st11" d="M359.4,225.6c0,0-11.2,8.1-18.7-2.8c0,0-12.5,3.1-15.3-8.4c0,0-14.9-1.2-14.3-12.7
								c0,0-18.1-8.7-6.2-25.2c0,0-11.5-10.2,1.6-21.7c0,0-10-14.9,7.5-19.3c0,0,1.6-17.7,19-13.7c0,0,4.7-14.9,21.5-9.3
								c0,0,15.1-11.2,23.7,3.7c0,0,16.5-2.2,19.6,11.5c0,0,15.9,2.2,14.3,18c0,0,12.2,11.2,4.4,24.5c0,0,7.8,22.2-9.1,24.2
								c0,0,0.5,9.8-9.4,14.2c0,0-1.8,11.9-12.4,10c0,0-8.1,9-14,4L359.4,225.6z"/>
						</g>
						<path class="st12" d="M412,145.8c1.6-15.8-14.3-18-14.3-18c7.9,34.2-11.4,77.8-41.4,81.7s-45.1-7.8-45.1-7.8
							c-0.6,11.5,14.3,12.7,14.3,12.7c2.8,11.5,15.3,8.4,15.3,8.4c7.5,10.9,18.7,2.8,18.7,2.8l12.1-2.8c5.9,5,14-4,14-4
							c10.6,1.9,12.4-10,12.4-10c10-4.3,9.4-14.2,9.4-14.2c16.8-2,9.1-24.2,9.1-24.2C424.2,156.9,412,145.8,412,145.8z"/>
					</g>
					<g>
						<path class="st6" d="M340.7,196.9c0,0,17.4,1.8,18.7,10.8c1.2,9-1.9,81.8-1.9,81.8h18.7c0,0-8.1-81.8-5.3-87.8
							c2.8-5.9,11.8-9.3,11.8-9.3s-10.3-0.3-13.7,2.8c-3.4,3.1-7.8,3.9-12.5,3.1C351.9,197.7,347.2,196.4,340.7,196.9z"/>
					</g>
				</g>
			</g>
			<g>
				<path class="st2" d="M532.7,286.6c0,6.9-14.1,12.5-31.5,12.5c-17.4,0-31.5-5.6-31.5-12.5s14.1-12.5,31.5-12.5
					C518.6,274.1,532.7,279.7,532.7,286.6z"/>
				<g>
					<g>
						<g>
							<path class="st13" d="M491.1,205c0,0-37-12.5-45.6-39.2c-8.7-26.7,0.6-64.7,34.6-77.8c34-13.1,77.3,9.5,79.6,46.3
								c2.3,36.8-20.8,61.7-51.1,70.7H491.1z"/>
						</g>
						<path class="st14" d="M559.7,134.4c-1.1-16.9-10.8-30.8-24.3-39.7c0,0,0,0,0,0c17.2,27.1,2.8,77.9-32.4,86.9
							c-34.7,8.9-53.4-7.4-54-7.9c12.4,21.3,42.1,31.3,42.1,31.3h17.5C538.9,196.1,562,171.2,559.7,134.4z"/>
					</g>
					<g>
						<path class="st6" d="M494.1,289.6c0,0,2.6-92.3,1.9-95.5c-0.8-3.2-10.1-17.7-10.1-17.7s12,13.2,13.2,7.7
							c1.1-5.5,3.4-46.8,3.4-46.8s0.8,41.8,3.8,41.4c3-0.5,15.4-16.8,15.4-16.8s-14.3,21.8-14.3,30c0,8.2,1.1,97.7,1.1,97.7H494.1z"
							/>
					</g>
				</g>
			</g>
			<g>
				<g>
					<path class="st7" d="M1438.3,154.7c-4.9-17.3-20.9-25.4-35.5-25.4c-5.9-15.1-25.3-23.3-41.1-17.2c-18.3,7-23.3,27.5-18.6,41.9
						c0,0,0,0,0,0c-5.5,2.4-10.4,6.6-14,13c-8.2,14.4,2.4,33.5,18.4,37c14.6,3.2,26.6-6.5,31.1-17.4c6.7,7.3,16.2,12.1,28.3,12.5
						C1428.5,199.6,1444.1,175.4,1438.3,154.7z"/>
					<path class="st8" d="M1400.9,181.1c-13.6,1.3-21.5-5.8-21.5-5.8s-9.3,10.1-28,11.5c-17.3,1.3-24.2-9.7-25.1-11.3
						c-1.3,12.5,8.2,25.6,21.1,28.5c14.6,3.2,26.6-6.5,31.1-17.4c6.7,7.3,16.2,12.1,28.3,12.5c21.8,0.7,37.4-23.5,31.6-44.2
						c-4.9-17.3-20.9-25.4-35.5-25.4C1429.1,148.3,1414.5,179.8,1400.9,181.1z"/>
				</g>
				<g>
					<path class="st6" d="M1373.4,290.8c0,0,2.6-92.3,1.9-95.5c-0.8-3.2-10.2-17.7-10.2-17.7s12,13.2,13.2,7.7
						c1.1-5.5,3.4-46.8,3.4-46.8s0.8,41.8,3.8,41.4c3-0.5,15.4-16.8,15.4-16.8s-14.3,21.8-14.3,30c0,8.2,1.1,97.7,1.1,97.7H1373.4z"
						/>
				</g>
			</g>
			<rect x="1590.5" y="175.5" class="st15" width="34" height="70"/>
			<circle class="st16" cx="1607.2" cy="209" r="7.4"/>
			<circle class="st16" cx="1607.1" cy="230.8" r="7.4"/>
			<circle class="st17" cx="1607.1" cy="188.4" r="7.4"/>
			<path class="st2" d="M1639.5,290c0,6.9-14.1,12.5-31.5,12.5c-17.4,0-31.5-5.6-31.5-12.5s14.1-12.5,31.5-12.5
				C1625.4,277.5,1639.5,283.1,1639.5,290z"/>
		</g>
		<rect x="1604" y="243" class="st18" width="6" height="50"/>
	</g>
</g>
</svg>
